<svg width="201" height="28" viewBox="0 0 201 28" fill="none" xmlns="http://www.w3.org/2000/svg">
<g clip-path="url(#clip0_28_2)">
<path d="M201 17.8674H196.861V4.13866H183.133V0H201V17.8674Z" fill="#F1552A"/>
<path d="M3.16856 12.901V27.7886H0V12.901H3.16856Z" fill="#F2F2F2"/>
<path d="M24.7228 12.901H27.8814V27.7886H27.1828L15.4075 18.8425V27.7886H12.2389V12.901H12.8315L24.7244 21.9001V12.901H24.7228Z" fill="#F2F2F2"/>
<path d="M92.1499 12.901H95.3085V27.7886H94.6099L82.8346 18.8425V27.7886H79.666V12.901H80.2587L92.1515 21.9001V12.901H92.1499Z" fill="#F2F2F2"/>
<path d="M70.306 15.6673H61.3946V19.0378H67.8261V21.6535H61.3946V25.024H70.306V27.7886H58.2261V12.901H70.306V15.6673Z" fill="#F2F2F2"/>
<path d="M111.522 12.901C112.529 12.901 113.499 13.0086 114.431 13.2255C115.363 13.4424 116.22 13.7619 117.003 14.1873C117.786 14.6128 118.47 15.1194 119.056 15.7087C119.641 16.298 120.096 16.99 120.422 17.788C120.748 18.5859 120.91 19.4385 120.91 20.3457C120.91 21.2529 120.748 22.1054 120.422 22.9034C120.096 23.7013 119.641 24.3933 119.056 24.9826C118.472 25.572 117.788 26.0785 117.003 26.504C116.22 26.9294 115.363 27.2506 114.431 27.4658C113.499 27.6827 112.529 27.7903 111.522 27.7903H104.046V12.901H111.522ZM111.522 25.024C112.38 25.024 113.189 24.923 113.952 24.7211C114.714 24.5191 115.389 24.2261 115.979 23.8437C116.566 23.4612 117.031 22.9679 117.371 22.3653C117.712 21.7627 117.881 21.089 117.881 20.3457C117.881 19.3607 117.584 18.5064 116.993 17.783C116.401 17.0596 115.633 16.5265 114.686 16.1822C113.739 15.8378 112.684 15.6657 111.522 15.6657H107.216V25.024H111.522Z" fill="#F2F2F2"/>
<path d="M131.929 12.901V27.7886H128.76V12.901H131.929Z" fill="#F2F2F2"/>
<path d="M184.013 12.901V27.7886H180.855V17.197L174.58 25.3948L174.188 25.4031L167.881 17.1986V27.7903H164.712V12.901H168.189L174.367 21.1552L180.535 12.901H184.013Z" fill="#F2F2F2"/>
<path d="M36.0643 17.8377C36.3904 17.0397 36.8457 16.3478 37.4301 15.7584C38.0144 15.1707 38.6981 14.6625 39.4828 14.237C40.2659 13.8116 41.1234 13.4904 42.0554 13.2752C42.9874 13.0583 43.9575 12.9507 44.9641 12.9507H48.8461V15.7154H44.9641C43.8019 15.7154 42.7474 15.8875 41.8005 16.2319C40.8536 16.5762 40.0854 17.1093 39.4928 17.8327C38.9018 18.5561 38.6054 19.4104 38.6054 20.3954C38.6054 21.1403 38.7759 21.8124 39.1153 22.415C39.4563 23.0176 39.9199 23.511 40.5076 23.8934C41.0969 24.2758 41.7707 24.5688 42.5338 24.7708C43.2954 24.9727 44.1065 25.0737 44.9641 25.0737H48.8461V27.8383H44.9641C43.9575 27.8383 42.9874 27.7307 42.0554 27.5139C41.1234 27.297 40.2659 26.9775 39.4828 26.552C38.6998 26.1266 38.0161 25.62 37.4301 25.0307C36.8457 24.443 36.3904 23.7493 36.0643 22.9514C35.7382 22.1535 35.5759 21.3026 35.5759 20.3937C35.5759 19.4849 35.7382 18.6356 36.0643 17.8377Z" fill="#F2F2F2"/>
<path d="M146.255 27.3003C145.458 26.9741 144.766 26.5189 144.176 25.9345C143.589 25.3501 143.08 24.6664 142.655 23.8817C142.229 23.0987 141.908 22.2412 141.693 21.3091C141.476 20.3771 141.369 19.407 141.369 18.4005V12.901H144.133V18.3988C144.133 19.561 144.305 20.6155 144.65 21.5624C144.994 22.5094 145.527 23.2775 146.25 23.8701C146.974 24.4611 147.828 24.7575 148.813 24.7575C149.558 24.7575 150.23 24.587 150.833 24.2476C151.435 23.9066 151.929 23.443 152.311 22.8553C152.694 22.266 152.987 21.5922 153.189 20.8291C153.391 20.0675 153.492 19.2564 153.492 18.3988V12.901H156.256V18.3988C156.256 19.4054 156.149 20.3755 155.932 21.3075C155.715 22.2395 155.395 23.097 154.97 23.8801C154.544 24.6631 154.038 25.3468 153.448 25.9329C152.861 26.5172 152.167 26.9725 151.369 27.2986C150.571 27.6247 149.72 27.787 148.811 27.787C147.903 27.787 147.053 27.6264 146.255 27.3003Z" fill="#F2F2F2"/>
</g>
<defs>
<clipPath id="clip0_28_2">
<rect width="201" height="28" fill="white"/>
</clipPath>
</defs>
</svg>
