<svg id="Layer_1" data-name="Layer 1" xmlns="http://www.w3.org/2000/svg" viewBox="0 0 1080 566.89"><defs><style>.cls-1{fill:#636bf6;}</style></defs><path class="cls-1" d="M349,361.26a89.85,89.85,0,0,1-103.25-9.47L446.42,235.93a150,150,0,1,0,7.74,47.51H393.91A89.75,89.75,0,0,1,349,361.26ZM214.22,283.45A89.85,89.85,0,0,1,362.39,215.1L215.71,299.78A88.19,88.19,0,0,1,214.22,283.45Z"/><polygon class="cls-1" points="615.38 355.64 526.76 133.38 450.51 133.38 570.16 433.5 660.86 433.5 778.86 133.38 702.76 133.38 615.38 355.64"/><path class="cls-1" d="M66.69,300.12V0H0V300.12A133.33,133.33,0,0,0,133.39,433.5V366.81A66.69,66.69,0,0,1,66.69,300.12Z"/><path class="cls-1" d="M1013.31,133.39V300.12a66.7,66.7,0,0,1-133.39,0V133.39H813.23V300.12a133.22,133.22,0,0,0,200.08,115.39v18a66.7,66.7,0,0,1-66.7,66.7H813.23v66.69H946.61A133.39,133.39,0,0,0,1080,433.5V133.39Z"/></svg>